<svg width="160" height="160" viewBox="0 0 160 160" fill="none" xmlns="http://www.w3.org/2000/svg">
<g clip-path="url(#clip0_101_14251)">
<path d="M80.7592 134.91C115.094 134.91 142.884 107.368 142.884 73.4035C142.884 39.4283 115.094 12 80.7592 12C46.5245 12 18.6343 39.531 18.6343 73.4959C18.6343 107.471 46.5245 134.91 80.7592 134.91Z" fill="#FFEDF1"/>
<path d="M110.458 141.674C100.993 141.971 89.6148 141.674 81.5597 141.581C73.6052 141.869 62.1269 141.971 52.6619 141.674C62.0253 136.43 65.3489 126.62 65.7512 120.187H97.1661C97.8711 126.518 101.194 136.43 110.458 141.674Z" fill="#A0A3BD"/>
<g filter="url(#filter0_d_101_14251)">
<path d="M140.863 38.1783V119.099C140.863 121.172 139.252 122.66 137.44 122.66H26.2794C24.3667 122.66 22.8562 121.079 22.8562 119.099V38.1783C22.8562 36.3005 24.4672 34.6074 26.2794 34.6074H137.239C139.353 34.71 140.863 36.3005 140.863 38.1783Z" fill="white"/>
</g>
<path d="M140.601 37.696V109.002H22.5957V37.696C22.5957 35.7566 24.2478 34.0942 26.0383 34.0942H137.02C139.086 34.0942 140.601 35.7566 140.601 37.696Z" fill="#A0A3BD"/>
<path d="M136.358 39.2251H26.6995V104.897H136.495V39.2251H136.358Z" fill="white"/>
<path d="M65.3793 43.9863H31.3777V69.5023H65.3793V43.9863Z" fill="#EAEEF9"/>
<path d="M130.141 43.9863H73.4717V54.3523H130.141V43.9863Z" fill="#EAEEF9"/>
<path d="M130.141 75.0884H73.4717V85.4544H130.141V75.0884Z" fill="#EAEEF9"/>
<path d="M130.141 58.3418H73.4717V63.1262H130.141V58.3418Z" fill="#EAEEF9"/>
<path d="M130.141 89.4438H73.4717V94.2283H130.141V89.4438Z" fill="#EAEEF9"/>
<path d="M65.3793 75.0884H31.3777V100.604H65.3793V75.0884Z" fill="#EAEEF9"/>
<path d="M81.6588 117.806C83.2699 117.806 84.5792 116.616 84.5792 114.933C84.5792 113.353 83.3704 112.06 81.6588 112.06C80.0478 112.06 78.7385 113.25 78.7385 114.933C78.7385 116.523 79.9473 117.806 81.6588 117.806Z" fill="#D6DDE8"/>
<path d="M107.476 72.2971C107.476 75.7449 106.892 78.9055 105.579 81.9223C102.664 89.3823 96.3934 95.1285 88.6656 97.7144C86.0418 98.5763 83.2712 99.0073 80.355 99.0073C65.3365 99.0073 53.2344 87.0836 53.2344 72.2971C53.2344 57.5003 65.3365 45.5869 80.355 45.5869C95.3734 45.5869 107.476 57.644 107.476 72.2971Z" fill="url(#paint0_linear_101_14251)"/>
<path d="M86.4313 68.9213V63.6368C86.4313 60.7431 83.9275 58.3418 80.922 58.3418C79.4187 58.3418 78.0827 58.9883 76.9139 59.9426C75.9124 60.9072 75.2445 62.1898 75.2445 63.7906V69.0856C73.7412 70.0502 72.5724 71.1685 71.5709 72.7692C70.7356 74.2161 70.2349 75.9811 70.2349 77.7461C70.2349 83.359 74.9099 87.843 80.7548 87.843C86.5986 87.843 91.2736 83.359 91.2736 77.7461C91.4409 73.8981 89.4368 70.6862 86.4313 68.9213ZM82.0908 78.7106V81.4297C82.0908 81.7478 81.7563 82.0763 81.4228 82.0763H80.254C79.9195 82.0763 79.586 81.7478 79.586 81.4297V79.6648V78.7106C78.5834 78.2283 78.0827 77.0996 78.2499 75.9812C78.4172 75.0166 79.2514 74.2161 80.254 74.0519C81.9235 73.7338 83.4257 75.0166 83.4257 76.4634C83.4257 77.428 82.925 78.2283 82.0908 78.7106ZM83.7603 67.8029C82.7577 67.4848 81.9235 67.3204 80.7548 67.3204C79.7522 67.3204 78.7507 67.4848 77.7492 67.8029V63.7906C77.7492 62.9902 78.0827 62.1898 78.5834 61.7075C79.0852 61.2253 79.9195 60.9071 80.7548 60.9071C82.4243 60.9071 83.7603 62.1898 83.7603 63.7906V67.8029Z" fill="white"/>
<path d="M111.181 12.2486C112.386 12.2486 113.362 11.2975 113.362 10.1243C113.362 8.95107 112.386 8 111.181 8C109.977 8 109 8.95107 109 10.1243C109 11.2975 109.977 12.2486 111.181 12.2486Z" fill="#FF8DA5"/>
<path d="M132.272 23.3728C134.078 23.3728 135.543 21.9462 135.543 20.1864C135.543 18.4266 134.078 17 132.272 17C130.465 17 129 18.4266 129 20.1864C129 21.9462 130.465 23.3728 132.272 23.3728Z" fill="#EF0032"/>
<path opacity="0.34" d="M48.4975 29.8304C49.2201 29.8304 49.806 29.2597 49.806 28.5558C49.806 27.8519 49.2201 27.2812 48.4975 27.2812C47.7748 27.2812 47.189 27.8519 47.189 28.5558C47.189 29.2597 47.7748 29.8304 48.4975 29.8304Z" fill="#120F8B"/>
<path opacity="0.34" d="M145.087 80.7059C145.81 80.7059 146.396 80.1352 146.396 79.4313C146.396 78.7274 145.81 78.1567 145.087 78.1567C144.365 78.1567 143.779 78.7274 143.779 79.4313C143.779 80.1352 144.365 80.7059 145.087 80.7059Z" fill="#67C876"/>
<path d="M75.1245 23.3947C75.4858 23.3947 75.7787 23.1094 75.7787 22.7574C75.7787 22.4054 75.4858 22.1201 75.1245 22.1201C74.7631 22.1201 74.4702 22.4054 74.4702 22.7574C74.4702 23.1094 74.7631 23.3947 75.1245 23.3947Z" fill="#67C876"/>
<path d="M9.18131 89.2485C10.3857 89.2485 11.3621 88.2975 11.3621 87.1243C11.3621 85.9511 10.3857 85 9.18131 85C7.97688 85 7.00049 85.9511 7.00049 87.1243C7.00049 88.2975 7.97688 89.2485 9.18131 89.2485Z" fill="#FF8DA5"/>
<path opacity="0.34" d="M38.309 14.5491C39.0316 14.5491 39.6175 13.9785 39.6175 13.2746C39.6175 12.5706 39.0316 12 38.309 12C37.5863 12 37.0005 12.5706 37.0005 13.2746C37.0005 13.9785 37.5863 14.5491 38.309 14.5491Z" fill="#120F8B"/>
<path d="M8.52706 63.974C9.37017 63.974 10.0536 63.3082 10.0536 62.487C10.0536 61.6658 9.37017 61 8.52706 61C7.68396 61 7.00049 61.6658 7.00049 62.487C7.00049 63.3082 7.68396 63.974 8.52706 63.974Z" fill="#120F8B"/>
<path d="M139.324 128.295L137.143 131.694H141.287L139.324 128.295Z" fill="#120F8B"/>
<path d="M30.9632 130L29.0005 133.399H33.144L30.9632 130Z" fill="#120F8B"/>
</g>
<defs>
<filter id="filter0_d_101_14251" x="0.856201" y="23.6074" width="162.007" height="132.052" filterUnits="userSpaceOnUse" color-interpolation-filters="sRGB">
<feFlood flood-opacity="0" result="BackgroundImageFix"/>
<feColorMatrix in="SourceAlpha" type="matrix" values="0 0 0 0 0 0 0 0 0 0 0 0 0 0 0 0 0 0 127 0" result="hardAlpha"/>
<feOffset dy="11"/>
<feGaussianBlur stdDeviation="11"/>
<feColorMatrix type="matrix" values="0 0 0 0 0.397708 0 0 0 0 0.47749 0 0 0 0 0.575 0 0 0 0.27 0"/>
<feBlend mode="normal" in2="BackgroundImageFix" result="effect1_dropShadow_101_14251"/>
<feBlend mode="normal" in="SourceGraphic" in2="effect1_dropShadow_101_14251" result="shape"/>
</filter>
<linearGradient id="paint0_linear_101_14251" x1="80.355" y1="45.5869" x2="80.355" y2="99.0073" gradientUnits="userSpaceOnUse">
<stop stop-color="#EE005C"/>
<stop offset="1" stop-color="#FF91A8"/>
</linearGradient>
<clipPath id="clip0_101_14251">
<rect width="160" height="160" fill="white"/>
</clipPath>
</defs>
</svg>
