<svg width="19" height="20" viewBox="0 0 19 20" fill="none" xmlns="http://www.w3.org/2000/svg">
<path d="M18.2031 8.35547H10.7617C10.4336 8.35547 10.168 8.62109 10.168 8.94922V11.3281C10.168 11.6562 10.4336 11.9219 10.7617 11.9219H14.9531C14.4961 13.1133 13.6367 14.1094 12.5469 14.7422L14.332 17.8359C17.1953 16.1797 18.8906 13.2695 18.8906 10.0156C18.8906 9.55078 18.8555 9.21875 18.7891 8.84766C18.7344 8.5625 18.4883 8.35547 18.2031 8.35547Z" fill="#167EE6"/>
<path d="M9.76953 15.4922C7.71875 15.4922 5.92969 14.3711 4.96875 12.7148L1.875 14.4961C3.44922 17.2266 6.39844 19.0625 9.76953 19.0625C11.4258 19.0625 12.9844 18.6172 14.332 17.8398V17.8359L12.5469 14.7422C11.7266 15.2187 10.7812 15.4922 9.76953 15.4922Z" fill="#12B347"/>
<path d="M14.3281 17.8398V17.8359L12.543 14.7422C11.7266 15.2148 10.7812 15.4922 9.76953 15.4922V19.0625C11.4258 19.0625 12.9844 18.6172 14.3281 17.8398Z" fill="#0F993E"/>
<path d="M4.21875 9.94141C4.21875 8.92969 4.49609 7.98438 4.96875 7.16797L1.875 5.38672C1.09375 6.72656 0.648438 8.28125 0.648438 9.94141C0.648438 11.6016 1.09375 13.1562 1.875 14.4961L4.96875 12.7148C4.49219 11.8984 4.21875 10.9531 4.21875 9.94141Z" fill="#FFD500"/>
<path d="M9.76953 4.39062C11.1055 4.39062 12.3359 4.86719 13.293 5.65625C13.5313 5.85156 13.875 5.83594 14.0898 5.62109L15.7734 3.9375C16.0195 3.69141 16 3.28906 15.7383 3.0625C14.1328 1.66406 12.043 0.820312 9.76953 0.820312C6.39844 0.820312 3.44922 2.65625 1.875 5.38672L4.96875 7.16797C5.92969 5.51172 7.71875 4.39062 9.76953 4.39062Z" fill="#FF4B26"/>
<path d="M13.293 5.65625C13.5313 5.85156 13.875 5.83594 14.0898 5.62109L15.7734 3.9375C16.0195 3.69141 16 3.28906 15.7383 3.0625C14.1328 1.66406 12.043 0.820312 9.76953 0.820312V4.39063C11.1055 4.39063 12.3359 4.86328 13.293 5.65625Z" fill="#D93F21"/>
</svg>
