<svg width="160" height="160" viewBox="0 0 160 160" fill="none" xmlns="http://www.w3.org/2000/svg">
<rect width="160" height="160" fill="white"/>
<path d="M130.181 142.249C131.385 142.249 132.362 141.297 132.362 140.124C132.362 138.951 131.385 138 130.181 138C128.976 138 128 138.951 128 140.124C128 141.297 128.976 142.249 130.181 142.249Z" fill="#FF8DA5"/>
<path d="M135.271 33.3728C137.078 33.3728 138.542 31.9462 138.542 30.1864C138.542 28.4266 137.078 27 135.271 27C133.465 27 132 28.4266 132 30.1864C132 31.9462 133.465 33.3728 135.271 33.3728Z" fill="#EF0032"/>
<path opacity="0.34" d="M51.497 39.8304C52.2196 39.8304 52.8055 39.2597 52.8055 38.5558C52.8055 37.8519 52.2196 37.2812 51.497 37.2812C50.7743 37.2812 50.1885 37.8519 50.1885 38.5558C50.1885 39.2597 50.7743 39.8304 51.497 39.8304Z" fill="#120F8B"/>
<path opacity="0.34" d="M148.087 90.7059C148.809 90.7059 149.395 90.1352 149.395 89.4313C149.395 88.7274 148.809 88.1567 148.087 88.1567C147.364 88.1567 146.778 88.7274 146.778 89.4313C146.778 90.1352 147.364 90.7059 148.087 90.7059Z" fill="#67C876"/>
<path d="M78.124 33.3947C78.4853 33.3947 78.7782 33.1094 78.7782 32.7574C78.7782 32.4054 78.4853 32.1201 78.124 32.1201C77.7626 32.1201 77.4697 32.4054 77.4697 32.7574C77.4697 33.1094 77.7626 33.3947 78.124 33.3947Z" fill="#67C876"/>
<path d="M12.1808 99.2485C13.3853 99.2485 14.3616 98.2975 14.3616 97.1243C14.3616 95.9511 13.3853 95 12.1808 95C10.9764 95 10 95.9511 10 97.1243C10 98.2975 10.9764 99.2485 12.1808 99.2485Z" fill="#FF8DA5"/>
<path opacity="0.34" d="M41.3085 24.5491C42.0311 24.5491 42.617 23.9785 42.617 23.2746C42.617 22.5706 42.0311 22 41.3085 22C40.5858 22 40 22.5706 40 23.2746C40 23.9785 40.5858 24.5491 41.3085 24.5491Z" fill="#120F8B"/>
<path d="M11.5266 73.974C12.3697 73.974 13.0532 73.3082 13.0532 72.487C13.0532 71.6658 12.3697 71 11.5266 71C10.6835 71 10 71.6658 10 72.487C10 73.3082 10.6835 73.974 11.5266 73.974Z" fill="#120F8B"/>
<path d="M151.181 127L149 130.399H153.144L151.181 127Z" fill="#120F8B"/>
<path d="M122.755 53H37.2449C32.6914 53 29 56.7655 29 61.4104V109.59C29 114.235 32.6914 118 37.2449 118H122.755C127.309 118 131 114.235 131 109.59V61.4104C131 56.7655 127.309 53 122.755 53Z" fill="#EAEEF9"/>
<path d="M105.496 59.0983C108.807 45.1797 100.119 31.2333 86.0901 27.9483C72.0613 24.6632 58.0046 33.2833 54.6935 47.2019C51.3824 61.1205 60.0708 75.0669 74.0996 78.352C88.1283 81.6371 102.185 73.0169 105.496 59.0983Z" fill="url(#paint0_linear_101_14478)"/>
<path d="M115.414 83H44.796C41.4733 83 38.7798 85.6935 38.7798 89.0162C38.7798 92.3388 41.4733 95.0324 44.796 95.0324H115.414C118.737 95.0324 121.43 92.3388 121.43 89.0162C121.43 85.6935 118.737 83 115.414 83Z" fill="white"/>
<path d="M49.9717 101H49.9551C49.588 101 49.2905 101.295 49.2905 101.659V110.84C49.2905 111.204 49.588 111.499 49.9551 111.499H49.9717C50.3387 111.499 50.6362 111.204 50.6362 110.84V101.659C50.6362 101.295 50.3387 101 49.9717 101Z" fill="#EF0032"/>
<path d="M54.3458 103.327C54.4442 103.472 54.4805 103.65 54.4466 103.822C54.4128 103.994 54.3117 104.145 54.1655 104.242L46.4932 109.365C46.3457 109.464 46.1649 109.5 45.9905 109.466C45.8161 109.432 45.6624 109.331 45.5631 109.185C45.4647 109.04 45.4285 108.862 45.4623 108.69C45.4961 108.519 45.5972 108.368 45.7434 108.27L53.4204 103.144C53.4931 103.095 53.5749 103.062 53.6609 103.044C53.747 103.027 53.8355 103.027 53.9216 103.044C54.0076 103.061 54.0894 103.095 54.1622 103.144C54.235 103.192 54.2974 103.255 54.3458 103.327Z" fill="#EF0032"/>
<path d="M54.2575 109.324C54.2064 109.394 54.1418 109.454 54.0673 109.5C53.9928 109.546 53.9099 109.576 53.8235 109.59C53.737 109.604 53.6487 109.6 53.5635 109.58C53.4783 109.56 53.398 109.523 53.3272 109.472L45.8347 104.093C45.7636 104.043 45.7033 103.979 45.6573 103.905C45.6113 103.831 45.5804 103.748 45.5665 103.663C45.5526 103.577 45.556 103.489 45.5763 103.405C45.5967 103.32 45.6337 103.241 45.6852 103.17C45.7368 103.1 45.802 103.04 45.8769 102.994C45.9519 102.948 46.0352 102.918 46.1221 102.904C46.209 102.89 46.2978 102.893 46.3834 102.914C46.469 102.934 46.5498 102.971 46.6211 103.022L54.1136 108.401C54.1842 108.452 54.244 108.516 54.2895 108.591C54.335 108.665 54.3653 108.747 54.3787 108.833C54.3921 108.918 54.3883 109.006 54.3675 109.09C54.3467 109.175 54.3093 109.254 54.2575 109.324Z" fill="#EF0032"/>
<path d="M62.0273 101H62.0107C61.6437 101 61.3462 101.295 61.3462 101.659V110.84C61.3462 111.204 61.6437 111.499 62.0107 111.499H62.0273C62.3943 111.499 62.6919 111.204 62.6919 110.84V101.659C62.6919 101.295 62.3943 101 62.0273 101Z" fill="#EF0032"/>
<path d="M66.413 103.336L66.4037 103.322C66.1988 103.02 65.7859 102.94 65.4814 103.143L57.8045 108.269C57.5 108.473 57.4193 108.882 57.6242 109.184L57.6335 109.198C57.8384 109.5 58.2513 109.58 58.5558 109.377L66.2327 104.251C66.5372 104.048 66.6179 103.638 66.413 103.336Z" fill="#EF0032"/>
<path d="M66.3135 109.324C66.2624 109.394 66.1977 109.454 66.1232 109.5C66.0487 109.546 65.9658 109.576 65.8794 109.59C65.7929 109.604 65.7046 109.6 65.6194 109.58C65.5343 109.56 65.454 109.523 65.3831 109.472L57.8851 104.093C57.7439 103.989 57.6493 103.834 57.6214 103.662C57.5934 103.49 57.6344 103.313 57.7356 103.17C57.7867 103.1 57.8513 103.04 57.9258 102.994C58.0003 102.949 58.0832 102.918 58.1696 102.904C58.2561 102.891 58.3444 102.894 58.4296 102.914C58.5148 102.934 58.5951 102.971 58.6659 103.022L66.1584 108.401C66.2299 108.451 66.2907 108.515 66.3373 108.589C66.3838 108.662 66.4152 108.745 66.4296 108.83C66.444 108.916 66.4412 109.004 66.4212 109.089C66.4013 109.173 66.3647 109.253 66.3135 109.324Z" fill="#EF0032"/>
<path d="M74.0884 101H74.0718C73.7047 101 73.4072 101.295 73.4072 101.659V110.84C73.4072 111.204 73.7047 111.499 74.0718 111.499H74.0884C74.4554 111.499 74.7529 111.204 74.7529 110.84V101.659C74.7529 101.295 74.4554 101 74.0884 101Z" fill="#EF0032"/>
<path d="M78.462 103.323C78.5604 103.468 78.5967 103.646 78.5629 103.818C78.5291 103.989 78.4279 104.14 78.2817 104.238L70.6094 109.361C70.462 109.459 70.2811 109.496 70.1067 109.462C69.9323 109.428 69.7786 109.327 69.6794 109.181C69.581 109.036 69.5447 108.858 69.5785 108.686C69.6123 108.514 69.7134 108.363 69.8597 108.265L77.5366 103.14C77.6828 103.042 77.8621 103.006 78.0351 103.04C78.2081 103.073 78.3605 103.173 78.4589 103.318L78.462 103.323Z" fill="#EF0032"/>
<path d="M78.3742 109.324C78.3231 109.394 78.2585 109.454 78.184 109.5C78.1095 109.546 78.0266 109.576 77.9402 109.59C77.8537 109.604 77.7654 109.6 77.6802 109.58C77.595 109.56 77.5147 109.523 77.4439 109.472L69.9514 104.093C69.8803 104.043 69.82 103.979 69.774 103.905C69.728 103.831 69.6971 103.749 69.6832 103.663C69.6693 103.577 69.6727 103.489 69.693 103.405C69.7134 103.32 69.7504 103.241 69.8019 103.17C69.853 103.1 69.9177 103.04 69.9922 102.994C70.0667 102.949 70.1495 102.918 70.236 102.904C70.3224 102.891 70.4108 102.894 70.4959 102.914C70.5811 102.934 70.6614 102.971 70.7322 103.022L78.2303 108.401C78.3706 108.506 78.4641 108.661 78.491 108.833C78.5179 109.006 78.476 109.182 78.3742 109.324Z" fill="#EF0032"/>
<path d="M86.144 101H86.1274C85.7604 101 85.4629 101.295 85.4629 101.659V110.84C85.4629 111.204 85.7604 111.499 86.1274 111.499H86.144C86.511 111.499 86.8086 111.204 86.8086 110.84V101.659C86.8086 101.295 86.511 101 86.144 101Z" fill="#EF0032"/>
<path d="M90.5239 103.337L90.5146 103.323C90.3097 103.021 89.8967 102.941 89.5923 103.144L81.9153 108.27C81.6108 108.474 81.5301 108.883 81.735 109.185L81.7443 109.199C81.9492 109.501 82.3622 109.581 82.6666 109.378L90.3436 104.252C90.6481 104.049 90.7288 103.639 90.5239 103.337Z" fill="#EF0032"/>
<path d="M81.8473 103.174C81.9506 103.032 82.1065 102.937 82.2805 102.909C82.4545 102.882 82.6325 102.924 82.7752 103.026L90.27 108.411C90.4128 108.513 90.5086 108.668 90.5365 108.841C90.5643 109.013 90.5219 109.19 90.4185 109.332C90.3151 109.473 90.1593 109.568 89.9853 109.596C89.8112 109.624 89.6333 109.581 89.4905 109.479L82.0002 104.097C81.8563 103.994 81.7597 103.838 81.7316 103.664C81.7035 103.49 81.7463 103.312 81.8505 103.169L81.8473 103.174Z" fill="#EF0032"/>
<path d="M98.1997 101H98.1831C97.8161 101 97.5186 101.295 97.5186 101.659V110.84C97.5186 111.204 97.8161 111.499 98.1831 111.499H98.1997C98.5667 111.499 98.8642 111.204 98.8642 110.84V101.659C98.8642 101.295 98.5667 101 98.1997 101Z" fill="#EF0032"/>
<path d="M102.576 103.323C102.675 103.468 102.711 103.646 102.677 103.818C102.643 103.989 102.542 104.141 102.396 104.238L94.719 109.364C94.5776 109.455 94.4064 109.49 94.2403 109.461C94.0742 109.431 93.9255 109.341 93.8244 109.206C93.726 109.061 93.6897 108.883 93.7235 108.712C93.7573 108.54 93.8585 108.389 94.0047 108.291L101.677 103.169C101.824 103.07 102.005 103.034 102.18 103.068C102.354 103.101 102.508 103.203 102.607 103.349L102.576 103.323Z" fill="#EF0032"/>
<path d="M93.9017 103.178C94.0051 103.036 94.1609 102.941 94.3349 102.914C94.509 102.886 94.6869 102.928 94.8297 103.031L102.324 108.415C102.46 108.516 102.551 108.663 102.581 108.828C102.61 108.993 102.575 109.162 102.483 109.303C102.38 109.444 102.224 109.54 102.05 109.567C101.876 109.595 101.698 109.553 101.555 109.45L94.0652 104.069C93.9212 103.965 93.8246 103.809 93.7965 103.635C93.7684 103.461 93.8112 103.283 93.9155 103.14L93.9017 103.178Z" fill="#EF0032"/>
<path d="M110.261 101H110.244C109.877 101 109.58 101.295 109.58 101.659V110.84C109.58 111.204 109.877 111.499 110.244 111.499H110.261C110.628 111.499 110.925 111.204 110.925 110.84V101.659C110.925 101.295 110.628 101 110.261 101Z" fill="#EF0032"/>
<path d="M114.628 103.324C114.727 103.469 114.763 103.646 114.729 103.818C114.696 103.99 114.594 104.141 114.448 104.239L106.776 109.361C106.628 109.46 106.448 109.496 106.273 109.462C106.099 109.429 105.945 109.327 105.846 109.181C105.747 109.036 105.711 108.858 105.745 108.686C105.779 108.515 105.88 108.364 106.026 108.266L113.703 103.14C113.776 103.091 113.858 103.058 113.944 103.041C114.03 103.023 114.118 103.023 114.204 103.041C114.29 103.058 114.372 103.091 114.445 103.14C114.518 103.189 114.58 103.251 114.628 103.324Z" fill="#EF0032"/>
<path d="M114.547 109.324C114.495 109.394 114.431 109.454 114.356 109.5C114.282 109.546 114.199 109.576 114.113 109.59C114.026 109.604 113.938 109.6 113.853 109.58C113.767 109.56 113.687 109.523 113.616 109.472L106.124 104.093C106.053 104.043 105.992 103.979 105.946 103.905C105.9 103.831 105.869 103.749 105.856 103.663C105.842 103.577 105.845 103.489 105.865 103.405C105.886 103.32 105.923 103.241 105.974 103.17C106.025 103.1 106.09 103.04 106.165 102.994C106.239 102.949 106.322 102.918 106.408 102.904C106.495 102.891 106.583 102.894 106.668 102.914C106.753 102.934 106.834 102.971 106.905 103.022L114.403 108.401C114.543 108.506 114.636 108.661 114.663 108.833C114.69 109.006 114.648 109.182 114.547 109.324Z" fill="#EF0032"/>
<path d="M86.1964 47.5795V42.295C86.1964 39.4013 83.6927 37 80.6871 37C79.1838 37 77.8478 37.6465 76.6791 38.6008C75.6775 39.5654 75.0096 40.848 75.0096 42.4488V47.7438C73.5063 48.7084 72.3375 49.8267 71.336 51.4274C70.5008 52.8743 70 54.6393 70 56.4043C70 62.0172 74.6751 66.5012 80.5199 66.5012C86.3637 66.5012 91.0387 62.0172 91.0387 56.4043C91.206 52.5563 89.202 49.3444 86.1964 47.5795ZM81.8559 57.3688V60.0879C81.8559 60.406 81.5214 60.7345 81.1879 60.7345H80.0191C79.6846 60.7345 79.3511 60.406 79.3511 60.0879V58.323V57.3688C78.3486 56.8865 77.8478 55.7578 78.0151 54.6394C78.1823 53.6748 79.0166 52.8743 80.0191 52.7101C81.6886 52.392 83.1909 53.6748 83.1909 55.1216C83.1909 56.0862 82.6902 56.8865 81.8559 57.3688ZM83.5254 46.4611C82.5229 46.143 81.6887 45.9786 80.5199 45.9786C79.5174 45.9786 78.5159 46.143 77.5143 46.4611V42.4488C77.5143 41.6484 77.8478 40.848 78.3486 40.3657C78.8504 39.8835 79.6846 39.5653 80.5199 39.5653C82.1894 39.5653 83.5254 40.848 83.5254 42.4488V46.4611Z" fill="white"/>
<path d="M23.9025 96.7858C22.4386 96.7699 20.9859 97.0402 19.6272 97.5813C18.2686 98.1224 17.0307 98.9237 15.9843 99.9395C14.9378 100.955 14.1033 102.166 13.5283 103.501C12.9533 104.837 12.6492 106.272 12.6333 107.725C12.6669 110.657 13.8729 113.456 15.9862 115.507C18.0995 117.557 20.947 118.691 23.9025 118.658C26.8581 118.691 29.7056 117.557 31.8189 115.507C33.9322 113.456 35.1382 110.657 35.1718 107.725C35.1559 106.272 34.8518 104.837 34.2768 103.501C33.7018 102.166 32.8673 100.955 31.8208 99.9395C30.7744 98.9237 29.5365 98.1224 28.1779 97.5813C26.8192 97.0402 25.3665 96.7699 23.9025 96.7858ZM23.9025 115.977C21.6743 115.999 19.5281 115.144 17.9339 113.6C16.3396 112.055 15.4273 109.946 15.3966 107.736C15.4273 105.525 16.3396 103.417 17.9339 101.872C19.5281 100.327 21.6743 99.4725 23.9025 99.4945C26.1308 99.4725 28.277 100.327 29.8712 101.872C31.4655 103.417 32.3778 105.525 32.4085 107.736C32.3778 109.946 31.4655 112.055 29.8712 113.6C28.277 115.144 26.1308 115.999 23.9025 115.977Z" fill="#6E7191"/>
<path d="M26.0789 97.5273H21.7207L21.9533 95H25.8518L26.0789 97.5273Z" fill="#6E7191"/>
<path d="M20.6131 97.8571L16.8364 99.9724L15.7344 97.6703L19.1124 95.7803L20.6131 97.8571Z" fill="#6E7191"/>
<path d="M16.0445 100.791L13.8627 104.456L11.7251 103L13.6744 99.7251L16.0445 100.791Z" fill="#6E7191"/>
<path d="M13.6027 105.555V109.785L11 109.56V105.78L13.6027 105.555Z" fill="#6E7191"/>
<path d="M13.9403 110.862L16.1221 114.526L13.752 115.592L11.8027 112.318L13.9403 110.862Z" fill="#6E7191"/>
<path d="M16.9697 115.29L20.7464 117.405L19.2457 119.482L15.8677 117.592L16.9697 115.29Z" fill="#6E7191"/>
<path d="M21.876 117.664H26.2342L26.0016 120.185H22.103L21.876 117.664Z" fill="#6E7191"/>
<path d="M27.3418 117.334L31.1185 115.219L32.2205 117.521L28.8425 119.411L27.3418 117.334Z" fill="#6E7191"/>
<path d="M31.9102 114.395L34.0865 110.73L36.2296 112.191L34.2803 115.466L31.9102 114.395Z" fill="#6E7191"/>
<path d="M34.3525 109.637V105.406L36.9553 105.632V109.412L34.3525 109.637Z" fill="#6E7191"/>
<path d="M34.0144 104.329L31.8325 100.665L34.2027 99.5933L36.1519 102.873L34.0144 104.329Z" fill="#6E7191"/>
<path d="M30.9852 99.8952L27.2085 97.7799L28.7092 95.7031L32.0872 97.5986L30.9852 99.8952Z" fill="#6E7191"/>
<path d="M41.7174 117.301C39.7018 117.281 37.7605 118.055 36.3202 119.454C34.8799 120.853 34.0585 122.763 34.0366 124.762C34.0453 125.754 34.2509 126.734 34.6418 127.647C35.0326 128.559 35.601 129.387 36.3144 130.081C37.0278 130.776 37.8722 131.324 38.7993 131.694C39.7264 132.065 40.718 132.25 41.7174 132.24C43.733 132.262 45.6749 131.489 47.1163 130.091C48.5576 128.693 49.3804 126.784 49.4038 124.784C49.3958 123.792 49.1905 122.811 48.7997 121.897C48.4088 120.983 47.84 120.155 47.126 119.46C46.4119 118.765 45.5667 118.216 44.6385 117.846C43.7104 117.475 42.7178 117.29 41.7174 117.301ZM41.7174 130.388C40.1982 130.402 38.7356 129.817 37.6499 128.763C36.5642 127.708 35.944 126.27 35.925 124.762C35.9425 123.255 36.5623 121.815 37.6483 120.761C38.7343 119.706 40.1977 119.122 41.7174 119.136C43.2381 119.12 44.703 119.704 45.7901 120.759C46.8773 121.814 47.4979 123.254 47.5154 124.762C47.4964 126.271 46.8754 127.71 45.7885 128.764C44.7017 129.819 43.2376 130.403 41.7174 130.388Z" fill="#6E7191"/>
<path d="M43.1796 117.812H40.2114L40.3665 116.087H43.0246L43.1796 117.812Z" fill="#6E7191"/>
<path d="M39.4525 118.032L36.8775 119.477L36.1299 117.905L38.428 116.62L39.4525 118.032Z" fill="#6E7191"/>
<path d="M36.3406 120.037L34.8565 122.537L33.3945 121.543L34.7236 119.307L36.3406 120.037Z" fill="#6E7191"/>
<path d="M34.6734 123.279V126.163L32.9014 126.015V123.433L34.6734 123.279Z" fill="#6E7191"/>
<path d="M34.9061 126.899L36.3902 129.399L34.7788 130.125L33.4497 127.894L34.9061 126.899Z" fill="#6E7191"/>
<path d="M36.9719 129.921L39.5414 131.361L38.5224 132.778L36.2188 131.487L36.9719 129.921Z" fill="#6E7191"/>
<path d="M40.311 131.537H43.2848L43.1297 133.256H40.4716L40.311 131.537Z" fill="#6E7191"/>
<path d="M44.0435 131.312L46.613 129.872L47.3661 131.438L45.0624 132.729L44.0435 131.312Z" fill="#6E7191"/>
<path d="M47.1553 129.311L48.6394 126.812L50.1013 127.806L48.7723 130.037L47.1553 129.311Z" fill="#6E7191"/>
<path d="M48.8169 126.064V123.18L50.5945 123.334V125.91L48.8169 126.064Z" fill="#6E7191"/>
<path d="M48.5896 122.449L47.1055 119.949L48.7169 119.219L50.046 121.455L48.5896 122.449Z" fill="#6E7191"/>
<path d="M46.5243 119.427L43.9492 117.982L44.9737 116.565L47.2774 117.856L46.5243 119.427Z" fill="#6E7191"/>
<path d="M100.401 125.107L106.903 134.738C107.194 135.176 107.3 135.71 107.196 136.225C107.092 136.739 106.788 137.192 106.349 137.485C105.907 137.773 105.369 137.877 104.851 137.774C104.333 137.671 103.876 137.37 103.58 136.936L97.0788 127.304C96.7872 126.867 96.6818 126.332 96.7855 125.818C96.8892 125.303 97.1937 124.85 97.6326 124.557C98.0739 124.268 98.6125 124.163 99.1311 124.266C99.6497 124.369 100.106 124.671 100.401 125.107Z" fill="#FFA400"/>
<path d="M109.489 119.052L115.99 128.683C116.282 129.121 116.387 129.655 116.283 130.17C116.18 130.684 115.875 131.137 115.436 131.43C114.995 131.72 114.456 131.824 113.938 131.721C113.419 131.618 112.963 131.316 112.667 130.881L106.166 121.271C105.876 120.833 105.771 120.299 105.875 119.785C105.979 119.271 106.282 118.818 106.72 118.524C107.159 118.234 107.695 118.127 108.213 118.226C108.731 118.324 109.189 118.621 109.489 119.052Z" fill="#FFA400"/>
<path d="M104.505 121.585L109.827 129.469C110.118 129.907 110.224 130.441 110.12 130.956C110.016 131.47 109.712 131.923 109.273 132.216C108.832 132.505 108.293 132.61 107.774 132.507C107.256 132.404 106.799 132.102 106.504 131.667L101.182 123.804C100.891 123.367 100.785 122.832 100.889 122.318C100.993 121.803 101.297 121.35 101.736 121.057C102.175 120.766 102.711 120.658 103.23 120.756C103.748 120.855 104.206 121.153 104.505 121.585Z" fill="#FFA400"/>
<g style="mix-blend-mode:soft-light" opacity="0.3">
<path d="M100.263 125.244L101.841 127.579C100.734 128.288 99.5709 128.991 98.4634 129.733L96.9294 127.442C96.6378 127.004 96.5324 126.469 96.6361 125.955C96.7398 125.44 97.0443 124.987 97.4832 124.694C97.9258 124.403 98.4665 124.297 98.9874 124.4C99.5083 124.503 99.9669 124.806 100.263 125.244Z" fill="black"/>
</g>
<g style="mix-blend-mode:soft-light" opacity="0.3">
<path d="M104.377 121.728L106.377 124.689L102.999 126.843L101.038 123.942C100.748 123.504 100.643 122.97 100.747 122.455C100.851 121.941 101.154 121.488 101.592 121.195C102.033 120.901 102.574 120.793 103.095 120.893C103.617 120.992 104.078 121.292 104.377 121.728Z" fill="black"/>
</g>
<g style="mix-blend-mode:soft-light" opacity="0.3">
<path d="M109.367 119.2L110.829 121.359C109.908 122.339 108.849 123.181 107.684 123.859L106.022 121.414C105.729 120.977 105.623 120.442 105.727 119.927C105.831 119.412 106.136 118.959 106.576 118.667C106.794 118.52 107.04 118.416 107.299 118.363C107.557 118.31 107.824 118.309 108.083 118.358C108.343 118.408 108.59 118.508 108.81 118.652C109.03 118.797 109.22 118.983 109.367 119.2Z" fill="black"/>
</g>
<path d="M137.914 99.4207C138.206 99.8585 138.311 100.393 138.207 100.907C138.104 101.422 137.799 101.875 137.36 102.168L97.1011 128.925C96.6603 129.215 96.1213 129.321 95.6022 129.218C95.0831 129.115 94.6265 128.812 94.3323 128.375C94.0407 127.937 93.9352 127.403 94.0389 126.889C94.1427 126.374 94.4472 125.921 94.8861 125.628L135.129 98.8713C135.572 98.5782 136.114 98.4714 136.636 98.5744C137.158 98.6774 137.618 98.9818 137.914 99.4207Z" fill="#FFA400"/>
<g style="mix-blend-mode:soft-light" opacity="0.5">
<path d="M137.77 99.5306C138.06 99.9688 138.165 100.503 138.061 101.017C137.957 101.531 137.654 101.984 137.216 102.278L133.749 104.58L133.65 104.377C133.056 103.251 132.521 102.096 132.049 100.915L134.979 98.9702C135.199 98.824 135.446 98.7225 135.705 98.6716C135.965 98.6206 136.232 98.6212 136.492 98.6733C136.751 98.7254 136.998 98.828 137.217 98.9751C137.437 99.1223 137.624 99.3111 137.77 99.5306Z" fill="black"/>
</g>
<path d="M148.807 90.663C147.35 88.7634 145.365 87.3273 143.097 86.5313C141.897 86.0784 140.606 85.9116 139.329 86.0442C138.051 86.1769 136.823 86.6053 135.743 87.295C134.69 88.0241 133.824 88.9879 133.215 90.109C132.605 91.2301 132.269 92.4773 132.232 93.7507C132.102 96.4862 132.88 99.1885 134.447 101.443C135.952 103.73 138.169 105.466 140.76 106.387C141.032 106.475 141.314 106.558 141.574 106.624C142.674 106.927 143.825 106.995 144.953 106.823C146.081 106.65 147.158 106.242 148.115 105.624C149.167 104.894 150.032 103.93 150.642 102.809C151.252 101.688 151.588 100.441 151.625 99.168C151.752 96.433 150.974 93.7318 149.41 91.4761C149.222 91.1794 149.023 90.9267 148.807 90.663ZM136.236 94.0089C136.241 93.3465 136.401 92.6943 136.703 92.1033C137.004 91.5123 137.44 90.9986 137.975 90.6025C138.547 90.2608 139.192 90.0556 139.858 90.0032C140.524 89.9507 141.193 90.0525 141.813 90.3003C143.568 90.9425 145.064 92.1369 146.071 93.7013C147.147 95.2208 147.692 97.0484 147.622 98.9043C147.618 99.5667 147.458 100.219 147.155 100.809C146.852 101.4 146.415 101.912 145.877 102.305C145.306 102.647 144.662 102.853 143.997 102.905C143.332 102.958 142.664 102.856 142.045 102.607C140.289 101.966 138.792 100.774 137.781 99.212C136.711 97.6899 136.171 95.8632 136.242 94.0089H136.236Z" fill="#FFA400"/>
<g style="mix-blend-mode:soft-light" opacity="0.5">
<path d="M149.272 91.6244C150.842 93.8773 151.62 96.5806 151.487 99.3163C151.451 100.59 151.114 101.837 150.505 102.958C149.895 104.079 149.029 105.043 147.976 105.772C147.02 106.39 145.942 106.799 144.815 106.971C143.687 107.143 142.535 107.076 141.436 106.772C143.081 106.261 144.608 105.433 145.93 104.336C147.252 103.238 148.342 101.893 149.139 100.377C149.624 99.5008 149.906 98.5285 149.964 97.5307C150.003 95.333 148.436 93.3111 148.635 91.1244C148.642 91.0231 148.655 90.9222 148.674 90.8223C148.879 91.0695 149.084 91.3442 149.272 91.6244Z" fill="black"/>
</g>
<path d="M9.38184 60.0543C9.38184 60.0543 23.6105 35.6418 45.6232 55.6694C45.6232 55.6694 31.4702 82.3588 9.38184 60.0543Z" fill="#A0A3BD"/>
<path d="M34.8671 60.2889C35.9416 56.2878 33.5435 52.18 29.5107 51.1139C25.4779 50.0477 21.3376 52.427 20.263 56.4282C19.1885 60.4293 21.5866 64.5371 25.6194 65.6032C29.6522 66.6693 33.7925 64.29 34.8671 60.2889Z" fill="#EAEBF2"/>
<path d="M31.3136 57.9044C31.3731 58.3946 31.3345 58.8916 31.2002 59.367C31.0658 59.8424 30.8383 60.2869 30.5307 60.675C30.223 61.0631 29.8413 61.3872 29.4073 61.6287C28.9732 61.8703 28.4955 62.0245 28.0013 62.0827C27.5076 62.141 27.0072 62.1023 26.5285 61.9687C26.0499 61.8351 25.6025 61.6093 25.2119 61.3041C24.8212 60.9989 24.495 60.6204 24.2519 60.1901C24.0087 59.7599 23.8534 59.2863 23.7947 58.7964C23.7352 58.3062 23.7738 57.8092 23.9081 57.3338C24.0425 56.8584 24.27 56.414 24.5776 56.0259C24.8853 55.6378 25.267 55.3137 25.701 55.0722C26.1351 54.8306 26.6128 54.6763 27.107 54.6181C27.6007 54.5598 28.1012 54.5986 28.5798 54.7322C29.0584 54.8658 29.5058 55.0916 29.8964 55.3967C30.2871 55.7019 30.6133 56.0805 30.8564 56.5107C31.0996 56.941 31.255 57.4146 31.3136 57.9044Z" fill="#6E7191"/>
<path opacity="0.4" d="M24.604 55.0123C24.6414 55.3211 24.5538 55.6319 24.3604 55.8766C24.167 56.1213 23.8836 56.2799 23.5725 56.3175C23.2613 56.3546 22.948 56.2676 22.7014 56.0758C22.4547 55.8839 22.2949 55.6027 22.257 55.294C22.2379 55.1411 22.2494 54.9858 22.291 54.8373C22.3325 54.6887 22.4032 54.5498 22.4991 54.4285C22.595 54.3072 22.7141 54.2059 22.8496 54.1305C22.9851 54.055 23.1343 54.0069 23.2886 53.9889C23.4428 53.9699 23.5992 53.9813 23.7489 54.0225C23.8987 54.0638 24.0387 54.134 24.1609 54.2291C24.2832 54.3242 24.3853 54.4424 24.4613 54.5768C24.5374 54.7112 24.5859 54.8593 24.604 55.0123Z" fill="#EFEBFF"/>
<path opacity="0.4" d="M25.9957 56.6224C26.0131 56.7766 25.9688 56.9313 25.8723 57.0534C25.7759 57.1754 25.6349 57.255 25.4799 57.275C25.3243 57.2935 25.1676 57.2501 25.0443 57.1541C24.921 57.0582 24.8411 56.9176 24.8222 56.7633C24.8123 56.6867 24.8178 56.609 24.8384 56.5346C24.8591 56.4602 24.8944 56.3906 24.9424 56.3299C24.9904 56.2692 25.0501 56.2185 25.118 56.1809C25.1859 56.1433 25.2607 56.1194 25.3379 56.1107C25.4151 56.1009 25.4934 56.1064 25.5684 56.1268C25.6434 56.1473 25.7135 56.1824 25.7747 56.23C25.8359 56.2776 25.887 56.3368 25.9249 56.4042C25.9628 56.4716 25.9869 56.5457 25.9957 56.6224Z" fill="#EFEBFF"/>
<path d="M37.8941 41.9882L36.0928 41L17.0561 75.1578L18.8574 76.146L37.8941 41.9882Z" fill="url(#paint1_linear_101_14478)"/>
<defs>
<linearGradient id="paint0_linear_101_14478" x1="54.6935" y1="47.2019" x2="105.454" y2="59.2772" gradientUnits="userSpaceOnUse">
<stop stop-color="#EE005C"/>
<stop offset="1" stop-color="#FF91A8"/>
</linearGradient>
<linearGradient id="paint1_linear_101_14478" x1="36.9934" y1="41.4941" x2="18.1856" y2="75.7774" gradientUnits="userSpaceOnUse">
<stop stop-color="#EE005C"/>
<stop offset="1" stop-color="#FF91A8"/>
</linearGradient>
</defs>
</svg>
