<svg width="18" height="18" viewBox="0 0 18 18" fill="none" xmlns="http://www.w3.org/2000/svg">
<path d="M9.00008 0.806152C7.35191 0.806152 5.74074 1.29173 4.37033 2.20147C2.99992 3.11121 1.93182 4.40427 1.30109 5.91711C0.670359 7.42996 0.505331 9.09466 0.826874 10.7007C1.14842 12.3067 1.94209 13.782 3.10753 14.9398C4.27297 16.0977 5.75782 16.8863 7.37433 17.2057C8.99084 17.5252 10.6664 17.3612 12.1891 16.7346C13.7118 16.1079 15.0133 15.0467 15.929 13.6852C16.8447 12.3237 17.3334 10.723 17.3334 9.08547C17.3334 7.99822 17.1179 6.92161 16.6991 5.91711C16.2803 4.91262 15.6665 3.99992 14.8926 3.23111C14.1188 2.4623 13.2002 1.85245 12.1891 1.43638C11.1781 1.0203 10.0944 0.806152 9.00008 0.806152ZM11.5751 10.6254C11.6149 10.6626 11.6467 10.7075 11.6684 10.7573C11.6901 10.8072 11.7014 10.8609 11.7014 10.9152C11.7014 10.9695 11.6901 11.0232 11.6684 11.0731C11.6467 11.1229 11.6149 11.1678 11.5751 11.205L11.1334 11.6438C11.096 11.6834 11.0508 11.7149 11.0007 11.7365C10.9505 11.7581 10.8964 11.7692 10.8418 11.7692C10.7871 11.7692 10.733 11.7581 10.6828 11.7365C10.6327 11.7149 10.5875 11.6834 10.5501 11.6438L9.00008 10.1121L7.45009 11.6438C7.41268 11.6834 7.3675 11.7149 7.31733 11.7365C7.26717 11.7581 7.21308 11.7692 7.15842 11.7692C7.10375 11.7692 7.04967 11.7581 6.99951 11.7365C6.94934 11.7149 6.90416 11.6834 6.86675 11.6438L6.42508 11.205C6.38523 11.1678 6.35346 11.1229 6.33174 11.0731C6.31002 11.0232 6.29882 10.9695 6.29882 10.9152C6.29882 10.8609 6.31002 10.8072 6.33174 10.7573C6.35346 10.7075 6.38523 10.6626 6.42508 10.6254L7.96675 9.08547L6.42508 7.54552C6.38523 7.50835 6.35346 7.46347 6.33174 7.41363C6.31002 7.36379 6.29882 7.31005 6.29882 7.25574C6.29882 7.20143 6.31002 7.1477 6.33174 7.09786C6.35346 7.04802 6.38523 7.00313 6.42508 6.96597L6.86675 6.52716C6.90416 6.48756 6.94934 6.456 6.99951 6.43442C7.04967 6.41285 7.10375 6.40172 7.15842 6.40172C7.21308 6.40172 7.26717 6.41285 7.31733 6.43442C7.3675 6.456 7.41268 6.48756 7.45009 6.52716L9.00008 8.05884L10.5501 6.52716C10.5875 6.48756 10.6327 6.456 10.6828 6.43442C10.733 6.41285 10.7871 6.40172 10.8418 6.40172C10.8964 6.40172 10.9505 6.41285 11.0007 6.43442C11.0508 6.456 11.096 6.48756 11.1334 6.52716L11.5751 6.96597C11.6149 7.00313 11.6467 7.04802 11.6684 7.09786C11.6901 7.1477 11.7014 7.20143 11.7014 7.25574C11.7014 7.31005 11.6901 7.36379 11.6684 7.41363C11.6467 7.46347 11.6149 7.50835 11.5751 7.54552L10.0334 9.08547L11.5751 10.6254Z" fill="#DBDBDB"/>
</svg>
