<svg version="1.1" xmlns="http://www.w3.org/2000/svg" xmlns:xlink="http://www.w3.org/1999/xlink" width="1em" height="1em" viewBox="0,0,256,256"><g fill="#ee0033" fill-rule="nonzero" stroke="none" stroke-width="1" stroke-linecap="butt" stroke-linejoin="miter" stroke-miterlimit="10" stroke-dasharray="" stroke-dashoffset="0" font-family="none" font-weight="none" font-size="none" text-anchor="none" style="mix-blend-mode: normal"><g transform="translate(0,0)"><g><g transform="translate(-0.00013,1.515) scale(0.25,0.25)"><path d="M508,624c61.85589,0 112,-50.14411 112,-112c0,-3.28 -0.15,-6.53 -0.43,-9.74l-121.31,121.31c3.21,0.28 6.45,0.43 9.74,0.43zM878.72,165.56l-42.72,-42.68c-3.12377,-3.12172 -8.18623,-3.12172 -11.31,0l-109.32,109.35c-60.30667,-30.82 -128.09667,-46.23 -203.37,-46.23c-192.2,0 -335.6,100.1 -430.2,300.3c-7.69937,16.30336 -7.69937,35.19664 0,51.5c37.8,79.62 83.31667,143.43667 136.55,191.45l-105.79,105.75c-3.12172,3.12377 -3.12172,8.18623 0,11.31l42.69,42.69c3.12377,3.12172 8.18623,3.12172 11.31,0l712.16,-712.12c1.50222,-1.50055 2.34629,-3.53673 2.34629,-5.66c0,-2.12327 -0.84408,-4.15945 -2.34629,-5.66zM332,512c-0.00563,-61.83652 32.4406,-119.13971 85.46932,-150.94711c53.02872,-31.8074 118.85962,-33.45227 173.41068,-4.33289l-48.62,48.62c-39.97476,-12.79984 -83.75086,-2.19107 -113.43097,27.48903c-29.6801,29.6801 -40.28887,73.45621 -27.48903,113.43097l-48.62,48.62c-13.64398,-25.49208 -20.76253,-53.9663 -20.72,-82.88z"></path><path d="M942.2,486.2c-35.2,-74.13333 -77.09667,-134.58333 -125.69,-181.35l-144.14,144.15c24.82139,64.88418 9.17288,138.29769 -39.94972,187.42028c-49.1226,49.1226 -122.5361,64.77111 -187.42028,39.94972l-122.26,122.26c56.72,26.24667 119.80667,39.37 189.26,39.37c192.2,0 335.6,-100.1 430.2,-300.3c7.70078,-16.30305 7.70078,-35.19695 0,-51.5z"></path></g></g></g></g></svg>