<svg version="1.1" xmlns="http://www.w3.org/2000/svg" xmlns:xlink="http://www.w3.org/1999/xlink" width="1em" height="1em" viewBox="0,0,256,256"><g fill="#ee0033" fill-rule="nonzero" stroke="none" stroke-width="1" stroke-linecap="butt" stroke-linejoin="miter" stroke-miterlimit="10" stroke-dasharray="" stroke-dashoffset="0" font-family="none" font-weight="none" font-size="none" text-anchor="none" style="mix-blend-mode: normal"><g transform="translate(0,0)"><g><g transform="translate(-0.00006,0) scale(0.25,0.25)"><path d="M396,512c0,61.85589 50.14411,112 112,112c61.85589,0 112,-50.14411 112,-112c0,-61.85589 -50.14411,-112 -112,-112c-61.85589,0 -112,50.14411 -112,112zM942.2,486.2c-94.8,-199.7 -238.1,-300.2 -430.2,-300.2c-192.2,0 -335.4,100.5 -430.2,300.3c-7.69937,16.30336 -7.69937,35.19664 0,51.5c94.8,199.7 238.1,300.2 430.2,300.2c192.2,0 335.4,-100.5 430.2,-300.3c7.7,-16.2 7.7,-35 0,-51.5zM508,688c-97.2,0 -176,-78.8 -176,-176c0,-97.2 78.8,-176 176,-176c97.2,0 176,78.8 176,176c0,97.2 -78.8,176 -176,176z"></path></g></g></g></g></svg>