<svg width="145" height="32" viewBox="0 0 136 16" fill="none" xmlns="http://www.w3.org/2000/svg" data-v-c69bab7c=""><path d="M99.7557 7.75431H96.2097C95.7687 7.75431 95.3951 7.80977 95.0889 7.9207C94.7827 8.03163 94.5377 8.17337 94.354 8.34593C94.1825 8.51848 94.0478 8.75267 93.9498 9.04848C93.8518 9.34429 93.7905 9.63393 93.7661 9.91742C93.7416 10.2009 93.7293 10.5522 93.7293 10.9712C93.7293 11.5012 93.7538 11.9388 93.8028 12.2839C93.8518 12.6167 93.9559 12.9495 94.1151 13.2823C94.2744 13.6027 94.5255 13.8431 94.8684 14.0033C95.2236 14.1512 95.6707 14.2252 96.2097 14.2252H99.9761V15.8891H95.6769C94.1213 15.8891 93.0373 15.4762 92.4248 14.6504C91.8124 13.8123 91.5062 12.5859 91.5062 10.9712C91.5062 9.36894 91.8124 8.15488 92.4248 7.32908C93.0373 6.50327 94.1213 6.09037 95.6769 6.09037H99.7557V7.75431Z" fill="white" data-v-c69bab7c=""></path> <path d="M101.256 15.8891V2.94739H103.405V15.8891H101.256Z" fill="white" data-v-c69bab7c=""></path> <path d="M115.164 10.9712C115.164 12.8694 114.754 14.182 113.933 14.9092C113.125 15.6364 111.808 16 109.983 16C108.158 16 106.835 15.6364 106.014 14.9092C105.206 14.182 104.802 12.8694 104.802 10.9712C104.802 9.09778 105.212 7.79744 106.033 7.07024C106.853 6.34304 108.17 5.97944 109.983 5.97944C111.796 5.97944 113.112 6.34304 113.933 7.07024C114.754 7.79744 115.164 9.09778 115.164 10.9712ZM107.025 10.9712C107.025 12.1915 107.245 13.0604 107.686 13.5781C108.127 14.0834 108.893 14.3361 109.983 14.3361C111.073 14.3361 111.838 14.0834 112.279 13.5781C112.72 13.0604 112.941 12.1915 112.941 10.9712C112.941 9.76335 112.72 8.90673 112.279 8.40139C111.838 7.89605 111.073 7.64338 109.983 7.64338C108.893 7.64338 108.127 7.89605 107.686 8.40139C107.245 8.90673 107.025 9.76335 107.025 10.9712Z" fill="white" data-v-c69bab7c=""></path> <path d="M125.564 6.09037V14.2252C125.564 15.3344 125.012 15.8891 123.91 15.8891H120.346C119.145 15.8891 118.214 15.6364 117.553 15.1311C116.891 14.6257 116.561 13.763 116.561 12.5427V6.09037H118.71V11.9696C118.71 12.7338 118.87 13.3007 119.188 13.6705C119.507 14.0403 120.027 14.2252 120.75 14.2252H122.863C123.23 14.2252 123.414 14.0403 123.414 13.6705V6.09037H125.564Z" fill="white" data-v-c69bab7c=""></path> <path d="M136 2.94739V14.2252C136 15.3344 135.449 15.8891 134.346 15.8891H130.947C129.478 15.8891 128.443 15.47 127.842 14.6319C127.254 13.7938 126.96 12.5735 126.96 10.9712C126.96 9.36894 127.254 8.15488 127.842 7.32908C128.43 6.50327 129.465 6.09037 130.947 6.09037H133.85V2.94739H136ZM133.85 7.75431H131.48C130.978 7.75431 130.568 7.82826 130.249 7.97616C129.931 8.12407 129.698 8.35825 129.551 8.67871C129.404 8.99917 129.306 9.33196 129.257 9.67707C129.208 10.0099 129.184 10.4412 129.184 10.9712C129.184 11.5012 129.208 11.9388 129.257 12.2839C129.306 12.6167 129.404 12.9495 129.551 13.2823C129.698 13.6027 129.931 13.8431 130.249 14.0033C130.568 14.1512 130.978 14.2252 131.48 14.2252H133.299C133.667 14.2252 133.85 14.0403 133.85 13.6705V7.75431Z" fill="white" data-v-c69bab7c=""></path> <path d="M17.8487 0C17.8487 0 17.0198 0.0584205 17.0188 0.812755L17.0154 3.34324C17.0154 3.34324 17.6639 2.48377 18.5763 2.48377H19.6627C19.6627 2.48377 20.5511 2.43129 20.5511 1.69945V0.795422C20.5511 0.795422 20.551 -1.37761e-06 19.6433 0H17.8487ZM41.1342 0.582552C40.147 0.582552 40.1471 1.46437 40.1471 1.46437V3.46877H37.9621V4.8156C37.9621 4.8156 37.962 5.68144 38.9492 5.68144H40.1471V12.3999C40.2118 14.6022 42.5583 15.88 44.5651 15.88H47.2355C47.9638 15.88 48.0772 14.885 48.0772 14.885V13.6024C46.7501 13.8589 45.6656 13.5864 45.6656 13.5864C43.6103 12.9931 43.6751 11.4539 43.6751 11.4539V5.68144H50.6342V12.3999C50.699 14.6022 53.0457 15.88 55.0525 15.88H57.7227C58.451 15.88 58.5643 14.885 58.5643 14.885V13.6024C57.2373 13.8589 56.153 13.5864 56.153 13.5864C54.0977 12.9931 54.1625 11.4539 54.1625 11.4539V5.68144H57.5464C58.5349 5.68144 58.5157 4.88737 58.5157 4.88737V3.46877H54.1625V1.56078C54.1625 0.637624 53.3208 0.582552 53.3208 0.582552H51.6213C50.6341 0.582552 50.6342 1.46437 50.6342 1.46437V3.46877H43.6751V1.56078C43.6751 0.637624 42.8337 0.582552 42.8337 0.582552H41.1342ZM77.0076 0.582552C76.0203 0.582552 76.0205 1.46437 76.0205 1.46437V12.3999C76.0852 14.6022 78.4317 15.88 80.4385 15.88H83.1089C83.8372 15.88 83.9506 14.885 83.9506 14.885V13.6024C82.6235 13.8589 81.539 13.5864 81.539 13.5864C79.4837 12.9931 79.5484 11.4539 79.5484 11.4539V1.56078C79.5484 0.637624 78.707 0.582552 78.707 0.582552H77.0076ZM29.257 3.38102C28.6752 3.38241 26.2308 3.45449 24.3563 4.52175C23.1255 5.22247 22.3393 6.39433 22.3044 8.84607C22.3044 8.84607 22.3122 12.48 22.8301 13.3459C22.8301 13.3459 23.4377 14.5813 24.7961 15.327C25.3831 15.6493 26.5634 15.88 27.4425 15.88H36.0686C36.0686 15.88 36.9102 15.7991 36.9102 14.7729V13.6506H28.3325C28.3325 13.6506 26.0346 13.5864 25.986 11.0048C25.9835 10.8695 25.9831 10.7608 25.9814 10.636H35.6963C35.6963 10.636 37.3957 10.5078 37.3957 8.32716C37.3957 8.32716 37.6708 6.0822 35.9067 4.68723C34.1427 3.29225 31.3117 3.42383 29.3852 3.38211C29.3852 3.38211 29.3401 3.38086 29.257 3.381L29.257 3.38102ZM66.1246 3.38102C65.5428 3.38227 63.0984 3.45449 61.2239 4.52175C59.9931 5.22247 59.2069 6.39433 59.172 8.84607C59.172 8.84607 59.1798 12.48 59.6977 13.3459C59.6977 13.3459 60.3053 14.5813 61.6637 15.327C62.2507 15.6493 63.431 15.88 64.3101 15.88H72.9362C72.9362 15.88 73.7778 15.7991 73.7778 14.7729V13.6506H65.2001C65.2001 13.6506 62.9022 13.5864 62.8536 11.0048C62.8511 10.8695 62.8504 10.7608 62.8487 10.636H72.5639C72.5639 10.636 74.2633 10.5078 74.2633 8.32716C74.2633 8.32716 74.5384 6.0822 72.7743 4.68723C71.0103 3.29225 68.1793 3.42383 66.2528 3.38211C66.2528 3.38211 66.2077 3.38086 66.1246 3.381L66.1246 3.38102ZM0 3.51237L6.02072 15.025C6.02072 15.025 6.34187 15.9995 8.12804 15.9995H8.77016C8.77016 15.9995 10.0948 16.059 10.737 14.9256C11.3792 13.7923 16.758 3.51237 16.758 3.51237H14.0083C14.0083 3.51237 12.9648 3.67151 12.3025 5.0236C11.6402 6.37568 8.58975 12.798 8.58975 12.798C8.58975 12.798 8.34885 13.1559 8.16823 12.798C7.9876 12.4401 4.19441 4.60598 4.19441 4.60598C4.19441 4.60598 3.51208 3.51237 2.74944 3.51237H0ZM17.8818 3.51237C17.8818 3.51237 17.0188 3.51251 17.0188 4.48681V15.0451C17.0188 15.0451 17.0789 15.88 17.9419 15.88H19.8685C19.8685 15.88 20.5511 15.8404 20.5511 14.8065V4.36738C20.5511 4.36738 20.4104 3.51237 19.728 3.51237H17.8818ZM29.8371 5.58177C30.8456 5.58218 32.3402 5.72769 33.1393 6.49934C33.1393 6.49934 33.7382 6.98023 33.7382 7.7178C33.7382 8.4714 33.2527 8.47151 33.107 8.47151H27.6852C27.6852 8.47151 26.8047 8.39598 25.9797 9.17323C25.9967 8.11097 26.0508 7.78199 26.0508 7.78199C26.0508 7.78199 26.0344 5.92185 28.8019 5.63323C28.8019 5.63323 29.232 5.58149 29.8371 5.58177ZM66.7047 5.58177C67.7132 5.58218 69.2078 5.72769 70.0069 6.49934C70.0069 6.49934 70.6058 6.98023 70.6058 7.7178C70.6058 8.4714 70.1203 8.47152 69.9746 8.47151H64.5528C64.5528 8.47151 63.6723 8.39598 62.8473 9.17323C62.8643 8.11097 62.9184 7.78199 62.9184 7.78199C62.9184 7.78199 62.902 5.92185 65.6695 5.63323C65.6695 5.63323 66.0996 5.5815 66.7047 5.58177Z" fill="#EF0032" data-v-c69bab7c=""></path></svg>