<svg width="240" height="28" viewBox="0 0 240 28" fill="none" xmlns="http://www.w3.org/2000/svg">
<g clip-path="url(#clip0_4153_40900)">
<path d="M29.233 10.132H27.1398C26.2736 10.132 25.624 10.7482 25.624 11.5697V26.357C25.624 27.1785 26.2736 27.7946 27.1398 27.7946H29.233C30.0992 27.7946 30.7488 27.1785 30.7488 26.357V11.5697C30.7488 10.7482 30.0992 10.132 29.233 10.132Z" fill="#EA0029"/>
<path d="M21.6541 10.132C20.3549 10.132 19.2 10.8851 18.6947 11.9804L13.1368 23.2763C12.9925 23.5501 12.7759 23.9609 12.4872 23.9609C12.1985 23.9609 11.982 23.5501 11.8376 23.2763L6.20752 11.9804C5.70226 10.8851 4.54737 10.132 3.24812 10.132H0L8.8782 26.4254C9.74436 28 11.5489 28 12.4872 28C13.7865 28 15.2301 27.9315 16.0241 26.4254L24.9023 10.132H21.6541Z" fill="#EA0029"/>
<path d="M119.675 7.39365C119.675 6.57213 119.025 5.95599 118.159 5.95599H116.066C115.2 5.95599 114.55 6.57213 114.55 7.39365V21.9755C114.55 24.2347 115.416 25.5354 116.86 26.4254C118.304 27.3154 119.964 27.7262 123.068 27.7262H124.728C125.594 27.7262 126.244 27.11 126.244 26.2885V24.7139H124.944C124.006 24.7139 122.057 24.7139 120.974 23.9609C119.459 23.0024 119.603 21.3594 119.603 20.1271V7.39365H119.675Z" fill="#EA0029"/>
<path d="M86.8331 24.7824C85.8947 24.7824 83.9459 24.7824 82.8632 24.0293C81.3474 23.0709 81.4917 21.4279 81.4917 20.1956V13.1443H86.4722C87.3383 13.1443 87.988 12.5281 87.988 11.7066V10.132H81.4917V7.39365C81.4917 6.57213 80.8421 5.95599 79.9759 5.95599H77.8827C77.0165 5.95599 76.3669 6.57213 76.3669 7.39365V10.132H65.612V7.39365C65.612 6.57213 64.9624 5.95599 64.0962 5.95599H62.003C61.1368 5.95599 60.4872 6.57213 60.4872 7.39365V10.132H57.3113V11.7066C57.3113 12.5281 57.9609 13.1443 58.8271 13.1443H60.4872V22.044C60.4872 24.3032 61.3534 25.6039 62.797 26.4939C64.2406 27.3839 65.9007 27.7946 69.0045 27.7946H70.7368C71.603 27.7946 72.2526 27.1785 72.2526 26.357V24.7824H70.9534C70.015 24.7824 68.0662 24.7824 66.9835 24.0293C65.4677 23.0709 65.612 21.4279 65.612 20.1956V13.0758H76.2947V21.9756C76.2947 24.2347 77.1609 25.5355 78.6045 26.4254C80.0481 27.3154 81.7083 27.7262 84.812 27.7262H86.4722C87.3383 27.7262 87.988 27.11 87.988 26.2885V24.7139H86.8331V24.7824Z" fill="#EA0029"/>
<path d="M55.3623 26.357V24.7824H43.9578C42.0811 24.7824 39.9157 24.577 39.2661 22.6601C39.1217 22.1125 38.9773 21.0171 38.9773 20.1956H52.4751C53.4134 20.1956 54.2796 20.0587 55.0014 19.511C55.9397 18.7579 56.0841 17.731 56.0841 16.8411C56.0841 14.5819 55.5067 12.3912 52.7638 11.0905C50.5984 10.0636 47.7834 9.92664 45.0405 9.92664C42.8751 9.92664 38.9052 9.92664 36.3788 11.5697C33.8525 13.2127 33.636 15.6772 33.636 18.9633C33.636 21.2909 33.7803 23.7555 35.2961 25.3985C37.245 27.4523 40.06 27.6577 42.442 27.6577H53.8465C54.6405 27.7946 55.3623 27.11 55.3623 26.357ZM50.8149 16.2249C50.8149 16.7041 50.6706 17.2518 49.6601 17.2518H42.2976C40.4209 17.2518 38.9052 18.0733 38.9052 19.0318V17.2518C38.9773 16.088 38.9052 15.1296 39.9879 14.2396C41.3593 13.0073 43.5247 13.0758 44.8961 13.0758C46.3397 13.0758 47.9999 13.1442 49.2991 13.8973C50.021 14.3081 50.8149 15.1296 50.8149 16.2249Z" fill="#EA0029"/>
<path d="M110.941 26.357V24.7824H99.5369C97.6602 24.7824 95.4948 24.577 94.8452 22.6601C94.7008 22.1125 94.5564 21.0171 94.5564 20.1956H108.054C108.993 20.1956 109.859 20.0587 110.581 19.511C111.519 18.7579 111.663 17.731 111.663 16.8411C111.663 14.5819 111.086 12.3912 108.343 11.0905C106.177 10.0636 103.362 9.92664 100.62 9.92664C98.4542 9.92664 94.4843 9.92664 91.9579 11.5697C89.4316 13.2127 89.2151 15.6772 89.2151 18.9633C89.2151 21.2909 89.3595 23.7555 90.8752 25.3985C92.8241 27.4523 95.6392 27.6577 98.0211 27.6577H109.426C110.22 27.7946 110.941 27.11 110.941 26.357ZM106.322 16.2249C106.322 16.7041 106.177 17.2518 105.167 17.2518H97.8767C96.0001 17.2518 94.4843 18.0733 94.4843 19.0318V17.2518C94.5564 16.088 94.4843 15.1296 95.567 14.2396C96.9384 13.0073 99.1038 13.0758 100.475 13.0758C101.919 13.0758 103.579 13.1442 104.878 13.8973C105.6 14.3081 106.322 15.1296 106.322 16.2249Z" fill="#EA0029"/>
<path d="M29.233 5.20294H27.1398C26.2736 5.20294 25.624 5.81908 25.624 6.64059V7.05135V10.132C25.7684 9.31052 26.7789 8.48901 28.1503 8.48901H29.233C30.0992 8.48901 30.7488 7.87287 30.7488 7.05135V6.64059C30.7488 5.81908 30.0992 5.20294 29.233 5.20294Z" fill="#EA0029"/>
<path d="M157.714 27.7946H145.516C143.062 27.7946 141.041 27.4523 139.381 26.7677C137.72 26.0831 136.421 25.1247 135.555 23.8239C134.689 22.5232 134.039 21.0856 133.678 19.511C133.317 17.9364 133.101 16.088 133.101 13.9658C133.101 11.8435 133.317 9.99509 133.678 8.42052C134.039 6.84595 134.689 5.4083 135.555 4.10756C136.421 2.80683 137.72 1.77993 139.381 1.1638C141.041 0.4792 143.134 0.136902 145.516 0.136902H157.281V4.31294H148.114C144.578 4.31294 142.123 4.99754 140.752 6.36673C139.453 7.73592 138.731 10.2689 138.731 14.0342C138.731 17.7995 139.381 20.3325 140.752 21.7017C142.051 23.0709 144.505 23.7555 148.114 23.7555H157.714V27.7946Z" fill="black"/>
<path d="M160.89 27.7946V0H165.799V27.7946H160.89Z" fill="black"/>
<path d="M192.578 17.2519C192.578 21.3594 191.639 24.1663 189.762 25.6724C187.886 27.247 184.926 28 180.74 28C176.553 28 173.594 27.247 171.717 25.6724C169.841 24.0978 168.902 21.291 168.902 17.2519C168.902 13.2127 169.841 10.4059 171.717 8.89977C173.594 7.3252 176.553 6.57214 180.74 6.57214C184.854 6.57214 187.886 7.3252 189.762 8.89977C191.639 10.4059 192.578 13.2127 192.578 17.2519ZM174.027 17.2519C174.027 19.8533 174.532 21.7017 175.543 22.7971C176.553 23.8924 178.286 24.4401 180.74 24.4401C183.194 24.4401 184.999 23.8924 185.937 22.7971C186.947 21.7017 187.453 19.8533 187.453 17.2519C187.453 14.6504 186.947 12.802 185.937 11.7066C184.926 10.6113 183.194 10.0636 180.74 10.0636C178.286 10.0636 176.481 10.6113 175.543 11.7066C174.532 12.802 174.027 14.6504 174.027 17.2519Z" fill="black"/>
<path d="M216.253 6.77753V24.2347C216.253 26.6308 215.026 27.7946 212.499 27.7946H204.415C201.672 27.7946 199.579 27.247 198.063 26.1516C196.547 25.0563 195.826 23.2078 195.826 20.6064V6.77753H200.734V19.3741C200.734 21.0171 201.095 22.2494 201.817 23.0025C202.538 23.824 203.693 24.1663 205.354 24.1663H210.19C211.056 24.1663 211.417 23.7555 211.417 23.0025V6.77753H216.253Z" fill="black"/>
<path d="M240 0V24.2347C240 26.6308 238.773 27.7946 236.247 27.7946H228.523C225.203 27.7946 222.821 26.9046 221.45 25.1247C220.078 23.3447 219.429 20.6748 219.429 17.2518C219.429 13.8289 220.078 11.2274 221.45 9.44743C222.821 7.66748 225.131 6.77751 228.523 6.77751H235.164V0H240ZM235.092 10.3374H229.678C228.523 10.3374 227.585 10.4743 226.863 10.8166C226.141 11.1589 225.636 11.6381 225.275 12.3227C224.914 13.0073 224.698 13.6919 224.626 14.445C224.481 15.198 224.481 16.088 224.481 17.2518C224.481 18.4156 224.554 19.3056 224.626 20.0587C224.77 20.8117 224.987 21.4963 225.275 22.1809C225.636 22.8655 226.141 23.4132 226.863 23.7555C227.585 24.0978 228.523 24.2347 229.678 24.2347H233.793C234.659 24.2347 235.02 23.824 235.02 23.0709V10.3374H235.092Z" fill="black"/>
</g>
<defs>
<clipPath id="clip0_4153_40900">
<rect width="240" height="28" fill="white"/>
</clipPath>
</defs>
</svg>
