<?xml version="1.0" encoding="utf-8"?>
<!-- Generator: Adobe Illustrator 23.0.0, SVG Export Plug-In . SVG Version: 6.00 Build 0)  -->
<svg version="1.1" id="Layer_1" xmlns="http://www.w3.org/2000/svg" xmlns:xlink="http://www.w3.org/1999/xlink" x="0px" y="0px"
	 width="38.7px" height="24px" viewBox="0 0 38.7 24" style="enable-background:new 0 0 38.7 24;" xml:space="preserve">
<style type="text/css">
	.st0{clip-path:url(#SVGID_2_);}
	.st1{fill:#FFFFFF;}
	.st2{fill:#EF081F;}
	.st3{fill:#001F80;}
	.st4{clip-path:url(#SVGID_2_);fill:none;}
</style>
<g>
	<defs>
		<path id="SVGID_1_" d="M36,24H2.7C1.2,24,0,22.8,0,21.3V2.7C0,1.2,1.2,0,2.7,0H36c1.5,0,2.7,1.2,2.7,2.7v18.6
			C38.7,22.8,37.5,24,36,24z"/>
	</defs>
	<clipPath id="SVGID_2_">
		<use xlink:href="#SVGID_1_"  style="overflow:visible;"/>
	</clipPath>
	<g class="st0">
		<g>
			<rect x="0" y="0" class="st1" width="38.7" height="24"/>
			<polygon class="st2" points="38.7,9.6 21.7,9.6 21.7,0 17,0 17,9.6 0,9.6 0,14.4 17,14.4 17,24 21.7,24 21.7,14.4 38.7,14.4 			
				"/>
		</g>
		<g>
			<polygon class="st3" points="0,2.8 0,8 8.4,8 			"/>
			<polygon class="st3" points="4.7,0 4.5,0 15.5,6.8 15.5,0 			"/>
			<polygon class="st2" points="13,8 0,0 0,1.9 9.9,8 			"/>
			<polygon class="st2" points="25.7,16 38.7,24 38.7,22.1 28.8,16 			"/>
		</g>
		<g>
			<polygon class="st3" points="0,21.2 0,16 8.4,16 			"/>
			<polygon class="st3" points="4.7,24 4.5,24 15.5,17.2 15.5,24 			"/>
			<polygon class="st2" points="12.9,16 0,23.9 3,24 15.5,16.3 15.5,16 			"/>
		</g>
		<g>
			<polygon class="st3" points="38.7,2.8 38.7,8 30.3,8 			"/>
			<polygon class="st3" points="34.1,0 34.2,0 23.2,6.8 23.2,0 			"/>
			<polygon class="st2" points="38.7,0 35.8,0 23.3,7.7 23.3,8 25.9,8 			"/>
		</g>
		<g>
			<polygon class="st3" points="38.7,21.2 38.7,16 30.3,16 			"/>
			<polygon class="st3" points="34.1,24 34.2,24 23.2,17.2 23.2,24 			"/>
		</g>
	</g>
	<path class="st4" d="M34.6,21.7H0.4c-0.2,0-0.4-0.2-0.4-0.4L0,0.4C0,0.2,0.2,0,0.4,0l34.2,0C34.8,0,35,0.2,35,0.4v20.9
		C35,21.5,34.8,21.7,34.6,21.7z"/>
</g>
</svg>
