<?xml version="1.0" encoding="utf-8"?>
<!-- Generator: Adobe Illustrator 23.0.0, SVG Export Plug-In . SVG Version: 6.00 Build 0)  -->
<svg version="1.1" id="Layer_1" xmlns="http://www.w3.org/2000/svg" xmlns:xlink="http://www.w3.org/1999/xlink" x="0px" y="0px"
	 width="38.7px" height="24px" viewBox="0 0 38.7 24" style="enable-background:new 0 0 38.7 24;" xml:space="preserve">
<style type="text/css">
	.st0{fill:#EE0033;}
	.st1{fill:#FFDA00;}
</style>
<path class="st0" d="M36,24H2.7C1.2,24,0,22.8,0,21.3V2.7C0,1.2,1.2,0,2.7,0H36c1.5,0,2.7,1.2,2.7,2.7v18.6C38.7,22.8,37.5,24,36,24
	z"/>
<path class="st0" d="M36,24H2.7C1.2,24,0,22.8,0,21.3V2.7C0,1.2,1.2,0,2.7,0H36c1.5,0,2.7,1.2,2.7,2.7v18.6C38.7,22.8,37.5,24,36,24
	z"/>
<path class="st1" d="M19.5,5.1L21,9.5c0,0.1,0.1,0.1,0.2,0.1h4.7c0.2,0,0.3,0.2,0.1,0.3l-3.8,2.8c-0.1,0-0.1,0.1-0.1,0.2l1.5,4.5
	c0.1,0.2-0.1,0.3-0.3,0.2l-3.8-2.8c-0.1,0-0.2,0-0.2,0l-3.8,2.8c-0.1,0.1-0.3,0-0.3-0.2l1.5-4.5c0-0.1,0-0.2-0.1-0.2L12.7,10
	c-0.1-0.1-0.1-0.3,0.1-0.3h4.7c0.1,0,0.2-0.1,0.2-0.1l1.5-4.5C19.2,4.9,19.5,4.9,19.5,5.1z"/>
</svg>
