<svg data-v-87887a60="" width="20" height="20" viewBox="0 0 24 24" fill="none" xmlns="http://www.w3.org/2000/svg"><path d="M19.33 5.68027L13.06 2.30027C12.4 1.94027 11.6 1.94027 10.94 2.30027L4.66999 5.68027C4.20999 5.93027 3.92999 6.41027 3.92999 6.96027C3.92999 7.50027 4.20999 7.99027 4.66999 8.24027L10.94 11.6203C11.27 11.8003 11.64 11.8903 12 11.8903C12.36 11.8903 12.73 11.8003 13.06 11.6203L19.33 8.24027C19.79 7.99027 20.07 7.51027 20.07 6.96027C20.07 6.41027 19.79 5.93027 19.33 5.68027V5.68027Z" fill="#EE0033"></path> <path d="M9.91 12.79L4.07 9.87C3.62 9.65 3.1 9.67 2.68 9.93C2.25 10.2 2 10.65 2 11.15V16.66C2 17.61 2.53 18.47 3.38 18.9L9.21 21.82C9.42794 21.9281 9.66968 21.9792 9.91271 21.9687C10.1557 21.9582 10.3922 21.8864 10.6 21.76C11.03 21.5 11.28 21.04 11.28 20.54V15.03C11.29 14.07 10.76 13.21 9.91 12.79V12.79Z" fill="#EE0033"></path> <path d="M21.32 9.93026C20.89 9.67026 20.37 9.64026 19.93 9.87026L14.1 12.7903C13.25 13.2203 12.72 14.0703 12.72 15.0303V20.5403C12.72 21.0403 12.97 21.5003 13.4 21.7603C13.6078 21.8867 13.8443 21.9585 14.0873 21.969C14.3303 21.9795 14.5721 21.9283 14.79 21.8203L20.62 18.9003C21.47 18.4703 22 17.6203 22 16.6603V11.1503C22 10.6503 21.75 10.2003 21.32 9.93026V9.93026Z" fill="#FCCCD6"></path></svg>