<svg data-v-87887a60="" width="20" height="20" viewBox="0 0 24 24" fill="none" xmlns="http://www.w3.org/2000/svg"><path d="M12 9.8C16.9703 9.8 21 7.831 21 5.4C21 2.969 16.9703 1 12 1C7.02975 1 3 2.969 3 5.4C3 7.831 7.02975 9.8 12 9.8ZM19.119 9.987C19.7988 9.66059 20.4313 9.24742 21 8.7583V18.6C21 21.031 16.9703 23 12 23C7.02975 23 3 21.031 3 18.6V8.7583C3.56866 9.24742 4.20118 9.66059 4.881 9.987C6.79125 10.9198 9.309 11.45 12 11.45C14.691 11.45 17.2087 10.9198 19.119 9.987Z" fill="#EE0033"></path> <path d="M15.5 17L17.6651 20.75H13.3349L15.5 17Z" fill="#FCCCD6"></path> <circle cx="8" cy="19" r="2" fill="#FCCCD6"></circle> <rect x="10" y="13" width="3.5" height="3.5" fill="#FCCCD6"></rect></svg>