<svg data-v-87887a60="" width="20" height="20" viewBox="0 0 102 102" fill="none" xmlns="http://www.w3.org/2000/svg"><path xmlns="http://www.w3.org/2000/svg" d="M11 11L46 43.5M46 43.5L76 11M46 43.5L86 86M46 43.5L16 81" stroke="#FCCCD6" stroke-width="6" stroke-linecap="round" stroke-linejoin="round"></path> <path xmlns="http://www.w3.org/2000/svg" fill-rule="evenodd" clip-rule="evenodd" d="M11 21C13.6522 21 16.1957 19.9464 18.0711 18.0711C19.9464 16.1957 21 13.6522 21 11C21 8.34784 19.9464 5.8043 18.0711 3.92893C16.1957 2.05357 13.6522 1 11 1C8.34784 1 5.8043 2.05357 3.92893 3.92893C2.05357 5.8043 1 8.34784 1 11C1 13.6522 2.05357 16.1957 3.92893 18.0711C5.8043 19.9464 8.34784 21 11 21V21ZM16 96C19.9782 96 23.7936 94.4196 26.6066 91.6066C29.4196 88.7936 31 84.9782 31 81C31 77.0218 29.4196 73.2064 26.6066 70.3934C23.7936 67.5804 19.9782 66 16 66C12.0218 66 8.20644 67.5804 5.3934 70.3934C2.58035 73.2064 1 77.0218 1 81C1 84.9782 2.58035 88.7936 5.3934 91.6066C8.20644 94.4196 12.0218 96 16 96V96ZM86 101C89.9782 101 93.7936 99.4196 96.6066 96.6066C99.4196 93.7936 101 89.9782 101 86C101 82.0218 99.4196 78.2064 96.6066 75.3934C93.7936 72.5804 89.9782 71 86 71C82.0218 71 78.2064 72.5804 75.3934 75.3934C72.5804 78.2064 71 82.0218 71 86C71 89.9782 72.5804 93.7936 75.3934 96.6066C78.2064 99.4196 82.0218 101 86 101ZM46 61C51.3043 61 56.3914 58.8929 60.1421 55.1421C63.8929 51.3914 66 46.3043 66 41C66 35.6957 63.8929 30.6086 60.1421 26.8579C56.3914 23.1071 51.3043 21 46 21C40.6957 21 35.6086 23.1071 31.8579 26.8579C28.1071 30.6086 26 35.6957 26 41C26 46.3043 28.1071 51.3914 31.8579 55.1421C35.6086 58.8929 40.6957 61 46 61V61ZM76 21C78.6522 21 81.1957 19.9464 83.0711 18.0711C84.9464 16.1957 86 13.6522 86 11C86 8.34784 84.9464 5.8043 83.0711 3.92893C81.1957 2.05357 78.6522 1 76 1C73.3478 1 70.8043 2.05357 68.9289 3.92893C67.0536 5.8043 66 8.34784 66 11C66 13.6522 67.0536 16.1957 68.9289 18.0711C70.8043 19.9464 73.3478 21 76 21V21Z" fill="#EE0033" stroke="#EE0033" stroke-linecap="round" stroke-linejoin="round"></path></svg>