<svg data-v-87887a60="" width="20" height="20" viewBox="0 0 24 24" fill="none" xmlns="http://www.w3.org/2000/svg"><path d="M22 7.81V16.19C22 19.83 19.83 22 16.19 22H7.81C7.61 22 7.41 21.99 7.22 21.98C5.99 21.9 4.95 21.55 4.13 20.95C3.71 20.66 3.34 20.29 3.05 19.87C2.36 18.92 2 17.68 2 16.19V7.81C2 4.37 3.94 2.24 7.22 2.03C7.41 2.01 7.61 2 7.81 2H16.19C17.68 2 18.92 2.36 19.87 3.05C20.29 3.34 20.66 3.71 20.95 4.13C21.64 5.08 22 6.32 22 7.81Z" fill="#EE0033"></path> <path d="M17.3249 10.8889C17.6891 10.8889 17.9911 10.5867 17.9911 10.2222V6.66667C17.9911 6.57778 17.9734 6.49778 17.9378 6.40889C17.8676 6.24519 17.7372 6.11474 17.5736 6.04444C17.4938 6.01605 17.4097 6.00103 17.3249 6H13.772C13.4078 6 13.1058 6.30222 13.1058 6.66667C13.1058 7.03111 13.4078 7.33333 13.772 7.33333H15.7172L11.9956 11.0578L8.27387 7.33333H10.2191C10.5833 7.33333 10.8853 7.03111 10.8853 6.66667C10.8853 6.30222 10.5833 6 10.2191 6H6.66617C6.57735 6 6.49741 6.01778 6.40859 6.05333C6.2487 6.11556 6.11547 6.24889 6.05329 6.40889C6.01776 6.49778 6 6.57778 6 6.66667V10.2222C6 10.5867 6.302 10.8889 6.66617 10.8889C7.03035 10.8889 7.33235 10.5867 7.33235 10.2222V8.27556L11.054 12L7.33235 15.7244V13.7778C7.33235 13.4133 7.03035 13.1111 6.66617 13.1111C6.302 13.1111 6 13.4133 6 13.7778V17.3333C6 17.4222 6.01776 17.5022 6.05329 17.5911C6.12435 17.7511 6.2487 17.8844 6.41747 17.9556C6.48853 17.9822 6.57735 18 6.66617 18H10.2191C10.5833 18 10.8853 17.6978 10.8853 17.3333C10.8853 16.9689 10.5833 16.6667 10.2191 16.6667H8.27387L11.9956 12.9422L15.7172 16.6667H13.772C13.4078 16.6667 13.1058 16.9689 13.1058 17.3333C13.1058 17.6978 13.4078 18 13.772 18H17.3249C17.4138 18 17.5026 17.9822 17.5825 17.9467C17.7424 17.8756 17.8756 17.7511 17.9467 17.5822C17.9822 17.5022 18 17.4133 18 17.3244V13.7689C18 13.4044 17.698 13.1022 17.3338 13.1022C16.9697 13.1022 16.6677 13.4044 16.6677 13.7689V15.7156L12.9371 12L16.6588 8.27556V10.2222C16.6588 10.5867 16.9608 10.8889 17.3249 10.8889Z" fill="#FCCCD6"></path></svg>